<?xml version="1.0" encoding="utf-8"?>
<!-- Generator: Adobe Illustrator 22.1.0, SVG Export Plug-In . SVG Version: 6.00 Build 0)  -->
<svg version="1.1" id="Layer_1" xmlns="http://www.w3.org/2000/svg" xmlns:xlink="http://www.w3.org/1999/xlink" x="0px" y="0px"
	 viewBox="0 0 113.4 170.6" style="enable-background:new 0 0 113.4 170.6;" xml:space="preserve">
<style type="text/css">
	.st0{fill:none;}
</style>
<path class="st0" d="M51.4,157.8c0.5,0,0.8-0.2,1.2-0.5c0.3-0.3,0.5-0.7,0.5-1.2c0-0.5-0.2-0.8-0.5-1.2c-0.3-0.3-0.7-0.5-1.2-0.5h-8
	V165h8c0.5,0,0.8-0.2,1.2-0.5c0.3-0.3,0.5-0.7,0.5-1.2c0-0.5-0.2-0.8-0.5-1.2c-0.3-0.3-0.7-0.5-1.2-0.5h-6.2v-3.9H51.4z"/>
<path class="st0" d="M70.5,157.8c0.5,0,0.8-0.2,1.2-0.5c0.3-0.3,0.5-0.7,0.5-1.2c0-0.5-0.2-0.8-0.5-1.2c-0.3-0.3-0.7-0.5-1.2-0.5
	h-7.9V165h7.9c0.5,0,0.8-0.2,1.2-0.5c0.3-0.3,0.5-0.7,0.5-1.2c0-0.5-0.2-0.8-0.5-1.2c-0.3-0.3-0.7-0.5-1.2-0.5h-6.4v-3.9H70.5z"/>
<path class="st0" d="M9.8,154.5c-1.5,0-2.7,0.5-3.7,1.5c-1,1-1.5,2.3-1.5,3.7c0,1.5,0.5,2.7,1.5,3.7c1,1,2.3,1.5,3.7,1.5
	c1.5,0,2.7-0.5,3.7-1.5c1-1,1.5-2.3,1.5-3.7c0-1.5-0.5-2.7-1.5-3.7C12.5,155,11.2,154.5,9.8,154.5z"/>
<path class="st0" d="M86.4,154.5c-1.5,0-2.7,0.5-3.7,1.5c-1,1-1.5,2.3-1.5,3.7c0,1.5,0.5,2.7,1.5,3.7c1,1,2.3,1.5,3.7,1.5
	c1.5,0,2.7-0.5,3.7-1.5c1-1,1.5-2.3,1.5-3.7c0-1.5-0.5-2.7-1.5-3.7C89.1,155,87.9,154.5,86.4,154.5z"/>
<path d="M9.8,150.6c-2.5,0-4.7,0.9-6.5,2.7c-1.8,1.8-2.7,4-2.7,6.5c0,2.5,0.9,4.7,2.7,6.5c1.8,1.8,4,2.7,6.5,2.7
	c2.5,0,4.7-0.9,6.5-2.7c1.8-1.8,2.7-4,2.7-6.5c0-2.5-0.9-4.7-2.7-6.5C14.5,151.5,12.3,150.6,9.8,150.6z M13.5,163.5
	c-1,1-2.3,1.5-3.7,1.5c-1.5,0-2.7-0.5-3.7-1.5c-1-1-1.5-2.3-1.5-3.7c0-1.5,0.5-2.7,1.5-3.7c1-1,2.3-1.5,3.7-1.5
	c1.5,0,2.7,0.5,3.7,1.5c1,1,1.5,2.3,1.5,3.7C15,161.2,14.5,162.4,13.5,163.5z"/>
<path d="M36.3,152.3c-1.2-1.2-2.5-1.7-4.2-1.7H20.9v0h-0.1V169h3.9v-14.5h7.3c0.5,0,1,0.2,1.4,0.6c0.4,0.4,0.6,0.8,0.6,1.4
	c0,0.5-0.2,1-0.6,1.4c-0.4,0.4-0.8,0.6-1.4,0.6h-5.6v3.9h5.6c0.5,0,1,0.2,1.4,0.6c0.4,0.4,0.6,0.8,0.6,1.4v4.6H38v-4.6
	c0-1.5-0.5-2.8-1.5-3.9c1-1.1,1.5-2.4,1.5-3.9C38,154.8,37.4,153.5,36.3,152.3z"/>
<path d="M55.4,152.2c-1.1-1.1-2.4-1.6-3.9-1.6H40v0h-0.4V169h3.9v0h8c1.5,0,2.9-0.5,3.9-1.6c1.1-1.1,1.6-2.4,1.6-3.9
	c0-1.4-0.4-2.6-1.3-3.6c0.9-1,1.3-2.2,1.3-3.6C57,154.6,56.5,153.3,55.4,152.2z M51.4,161.7c0.5,0,0.8,0.2,1.2,0.5
	c0.3,0.3,0.5,0.7,0.5,1.2c0,0.5-0.2,0.8-0.5,1.2c-0.3,0.3-0.7,0.5-1.2,0.5h-8v-10.5h8c0.5,0,0.8,0.2,1.2,0.5
	c0.3,0.3,0.5,0.7,0.5,1.2c0,0.5-0.2,0.8-0.5,1.2c-0.3,0.3-0.7,0.5-1.2,0.5h-6.2v3.9H51.4z"/>
<path d="M74.4,152.2c-1.1-1.1-2.4-1.6-3.9-1.6H59v0h-0.3V169h3.9v0h7.9c1.5,0,2.9-0.5,3.9-1.6c1.1-1.1,1.6-2.4,1.6-3.9
	c0-1.4-0.4-2.6-1.3-3.6c0.9-1,1.3-2.2,1.3-3.6C76.1,154.6,75.5,153.3,74.4,152.2z M70.5,161.7c0.5,0,0.8,0.2,1.2,0.5
	c0.3,0.3,0.5,0.7,0.5,1.2c0,0.5-0.2,0.8-0.5,1.2c-0.3,0.3-0.7,0.5-1.2,0.5h-7.9v-10.5h7.9c0.5,0,0.8,0.2,1.2,0.5
	c0.3,0.3,0.5,0.7,0.5,1.2c0,0.5-0.2,0.8-0.5,1.2c-0.3,0.3-0.7,0.5-1.2,0.5h-6.4v3.9H70.5z"/>
<path d="M86.4,150.6c-2.5,0-4.7,0.9-6.5,2.7c-1.8,1.8-2.7,4-2.7,6.5c0,2.5,0.9,4.7,2.7,6.5c1.8,1.8,4,2.7,6.5,2.7
	c2.5,0,4.7-0.9,6.5-2.7c1.8-1.8,2.7-4,2.7-6.5c0-2.5-0.9-4.7-2.7-6.5C91.1,151.5,88.9,150.6,86.4,150.6z M90.1,163.5
	c-1,1-2.3,1.5-3.7,1.5c-1.5,0-2.7-0.5-3.7-1.5c-1-1-1.5-2.3-1.5-3.7c0-1.5,0.5-2.7,1.5-3.7c1-1,2.3-1.5,3.7-1.5
	c1.5,0,2.7,0.5,3.7,1.5c1,1,1.5,2.3,1.5,3.7C91.6,161.2,91.1,162.4,90.1,163.5z"/>
<path d="M113,150.6v3.9h-6.6v14.4h-3.9v-14.4H96v-3.9H113z"/>
<g>
	<path d="M26.6,63c-1.5,3.7-2.2,7.7-2.2,11.7c0,6.4,1.9,12.6,5.4,17.9L47.1,63H26.6z"/>
</g>
<g>
	<path d="M31.3,94.8c6.2,7.8,15.4,12.3,25.4,12.3c0.6,0,1.3,0,2-0.1l-17-29.9L31.3,94.8z"/>
</g>
<g>
	<path d="M51.2,89.1l10,17.7c10.6-1.5,19.7-8.1,24.4-17.7H51.2z"/>
</g>
<g>
	<path d="M66.1,86.7h20.6c1.5-3.8,2.3-7.8,2.3-11.9c0-6.4-1.9-12.6-5.4-17.9L66.1,86.7z"/>
</g>
<g>
	<path d="M27.6,60.6H62L51.7,42.8C41.2,44.5,32.3,51.1,27.6,60.6z"/>
</g>
<g>
	<path d="M54.3,42.5l17.4,30l10.4-17.7c-6.2-7.9-15.4-12.3-25.4-12.3C55.9,42.4,55.1,42.5,54.3,42.5z"/>
</g>
<path d="M110.2,58.9H109l-2.4-55.8c-0.1-1.3-1.9-1.3-2,0l-2.5,55.8h-0.7L86,32.1c-1.5-2.6-4.3-4.2-7.3-4.2H34.4
	c-3,0-5.8,1.6-7.3,4.2L11.7,58.9h-0.6L8.6,3.1c-0.1-1.3-1.9-1.3-2,0L4.2,58.9H3c-1.1,1.1-1.7,1.7-2.8,2.8v28.4
	c1.1,1.1,1.7,1.7,2.8,2.8h10l14.1,24.4c1.5,2.6,4.3,4.2,7.3,4.2h44.3c3,0,5.8-1.6,7.3-4.2l14.1-24.4h10.1c1.1-1.1,1.7-1.7,2.8-2.8
	V61.7C111.9,60.6,111.3,60,110.2,58.9z M56.6,110.6c-19.8,0-35.9-16.1-35.9-35.9c0-19.8,16.1-35.9,35.9-35.9
	c19.8,0,35.9,16.1,35.9,35.9C92.4,94.5,76.4,110.6,56.6,110.6z"/>
</svg>
